<?xml version="1.0" encoding="UTF-8"?>
<svg width="98px" height="98px" viewBox="0 0 98 98" version="1.1" xmlns="http://www.w3.org/2000/svg" xmlns:xlink="http://www.w3.org/1999/xlink">
    <title>logo</title>
    <defs>
        <linearGradient x1="105.169703%" y1="1.74147944e-13%" x2="5.78221255e-13%" y2="100%" id="linearGradient-1">
            <stop stop-color="#FFFFFF" stop-opacity="0.5" offset="0%"></stop>
            <stop stop-color="#FFFFFF" stop-opacity="0.5" offset="36.9744423%"></stop>
            <stop stop-color="#FFFFFF" stop-opacity="0.5" offset="41.5297233%"></stop>
            <stop stop-color="#9A9A9A" stop-opacity="0.5" offset="60.9096845%"></stop>
            <stop stop-color="#FFFFFF" stop-opacity="0.5" offset="100%"></stop>
        </linearGradient>
        <path d="M78.0334271,82.5345924 L79.125217,83.8778469 L78.904538,84.0509155 C78.7717473,83.9406137 78.6158126,83.8303508 78.4367339,83.720127 C78.2576552,83.6099032 78.0873455,83.5311992 77.9258047,83.4840152 C77.7440409,83.4295081 77.5668764,83.4141377 77.3943112,83.4379042 C77.2217461,83.4616707 77.0592126,83.5333541 76.9067109,83.6529544 C76.7326795,83.7894394 76.6009992,83.9550149 76.5116702,84.1496808 C76.4223412,84.3443467 76.3820304,84.5599764 76.390738,84.7965701 C76.4006082,85.0235581 76.4638493,85.2724434 76.5804611,85.5432259 C76.6970729,85.8140084 76.8636829,86.0875989 77.0802911,86.3639974 C77.2715815,86.6080896 77.4779971,86.8077185 77.6995379,86.9628841 C77.9210787,87.1180498 78.1497431,87.2277828 78.3855309,87.2920833 C78.6199123,87.3545889 78.8493536,87.3673578 79.0738549,87.3303901 C79.2983563,87.2934223 79.5074904,87.1989571 79.7012573,87.0469944 C79.8465825,86.9330223 79.9623123,86.8053126 80.0484468,86.663865 C80.1345812,86.5224175 80.1929644,86.3788265 80.2235964,86.233092 C80.2514152,86.0837679 80.2600299,85.9321173 80.2494406,85.7781404 C80.2388512,85.6241635 80.2086701,85.4710621 80.1588973,85.3188361 L80.4366914,85.2574605 C80.5791769,85.7571697 80.5866821,86.1881403 80.459207,86.5503721 C80.3317318,86.9126039 80.0921687,87.2316119 79.7405177,87.5073961 C79.5126621,87.686093 79.2590621,87.812533 78.9797177,87.8867159 C78.7003733,87.9608989 78.4138571,87.9769528 78.1201693,87.9348776 C77.8282756,87.8913954 77.5394905,87.785344 77.2538141,87.6167235 C76.9681377,87.448103 76.705743,87.2112351 76.46663,86.9061199 C76.2275171,86.6010046 76.0572048,86.2875738 75.9556933,85.9658274 C75.8541817,85.644081 75.815629,85.3287431 75.840035,85.0198139 C75.8640534,84.7140864 75.9493224,84.4255254 76.095842,84.1541307 C76.2423616,83.8827361 76.4421082,83.6478408 76.6950817,83.4494451 C76.8834662,83.3017035 77.0721944,83.191365 77.2612663,83.1184294 C77.4503383,83.0454938 77.6470025,82.9970317 77.8512588,82.9730433 L77.8181305,82.7034399 L78.0334271,82.5345924 Z M61.5789756,91.4937164 L65.1376103,90.2956227 L65.5106503,91.4044561 L65.2675742,91.4862931 C65.1690955,91.3365703 65.0169269,91.1934935 64.8110686,91.0570627 C64.6052103,90.9206319 64.4345521,90.8655938 64.2990941,90.8919484 L64.1429989,90.9284595 C64.1142637,90.9359949 64.0841689,90.9442554 64.0527144,90.9532411 L63.8476716,91.0158565 L63.8476716,91.0158565 L63.010167,91.297019 L63.6253558,93.1256214 L64.1439182,92.9510358 C64.3102903,92.8950229 64.4265564,92.8384338 64.4927164,92.7812683 C64.5588764,92.7241029 64.6087636,92.6489548 64.642378,92.555824 C64.6688249,92.4771377 64.6811596,92.3797413 64.6793821,92.2636348 C64.6776047,92.1475283 64.6664835,92.0411848 64.6460184,91.9446045 L64.8890945,91.8627675 L65.4944665,93.66219 L65.2513904,93.744027 C65.2078433,93.6431863 65.147712,93.5413117 65.0709964,93.4384034 C64.9942807,93.335495 64.9266704,93.2650139 64.8681654,93.22696 C64.7728246,93.1652134 64.6781178,93.1357382 64.584045,93.1385344 C64.4899722,93.1413307 64.3727138,93.1663706 64.2322698,93.2136542 L63.7137074,93.3882398 L64.1783713,94.7694182 C64.2249104,94.9077522 64.2713557,95.0136328 64.3177072,95.0870602 C64.3640587,95.1604876 64.4222314,95.2082785 64.4922253,95.230433 C64.5622192,95.2525874 64.6478311,95.2532413 64.749061,95.2323946 C64.799676,95.2219712 64.8600542,95.2066065 64.9301957,95.1863005 L65.4518785,95.0156273 L65.4518785,95.0156273 L65.6588048,94.9395442 C65.688888,94.9272771 65.716769,94.9152167 65.7424478,94.9033629 C65.8216448,94.8670744 65.9011794,94.8228517 65.9810515,94.7706949 C66.0609236,94.7185382 66.1126808,94.6668234 66.1363232,94.6155505 C66.20081,94.4783377 66.2521608,94.2859919 66.2903755,94.038513 L66.3262936,93.7746265 C66.3392828,93.6592273 66.3448172,93.5686441 66.3428969,93.5028771 L66.57625,93.4243136 L66.9446804,94.8090157 L63.1267645,96.0944021 L63.0493205,95.8642057 L63.2993302,95.7493542 L63.2993302,95.7493542 L63.3696868,95.7138236 L63.3696868,95.7138236 L63.4676572,95.6564761 C63.4792364,95.6484419 63.488441,95.6411695 63.495271,95.6346591 C63.553505,95.578959 63.5874002,95.5206248 63.5969565,95.4596565 C63.6065128,95.3986883 63.5978382,95.328217 63.5709328,95.2482427 L62.4583573,91.9411958 C62.4343606,91.8698674 62.401207,91.8106453 62.3588967,91.7635297 C62.3165863,91.7164141 62.2518019,91.6882948 62.1645434,91.6791717 C62.0967519,91.6707135 62.0100648,91.6722263 61.9044823,91.6837101 C61.7988998,91.6951939 61.7162122,91.7085948 61.6564196,91.7239128 L61.5789756,91.4937164 Z M82.8815504,77.5828803 L83.0652347,77.7417126 C83.025216,77.7915142 82.9797968,77.8615157 82.9289772,77.951717 L82.8493886,78.1019501 C82.839799,78.1219606 82.8320469,78.1394571 82.8261324,78.1544395 C82.7961407,78.2309985 82.7968358,78.3016867 82.8282177,78.3665039 C82.8595996,78.4313211 82.9037486,78.4883375 82.9606649,78.5375531 L85.4261737,80.6694853 L85.5814765,80.7964282 C85.6280954,80.8318412 85.6695657,80.8603528 85.7058874,80.8819631 C85.7785306,80.9251837 85.8499897,80.9410034 85.9202645,80.9294223 C85.9855989,80.9165837 86.0569257,80.8750137 86.1342449,80.8047121 L86.2670721,80.6725677 L86.2670721,80.6725677 L86.4335965,80.4870395 L86.4335965,80.4870395 L86.6006139,80.2832855 L86.6006139,80.2832855 C86.6567979,80.211288 86.7065508,80.1397586 86.7498725,80.068697 C86.7917034,79.9993609 86.8255538,79.9314139 86.8514238,79.8648561 C86.8772937,79.7982982 86.8868667,79.7410106 86.8801427,79.6929934 C86.8655719,79.5815184 86.8312255,79.4399209 86.7771036,79.2682007 L86.7328042,79.1337626 C86.6527921,78.9002858 86.5784225,78.7221809 86.5096954,78.599448 L86.6684696,78.4156964 L87.6931392,79.4373834 L85.2131321,82.3075315 L85.0294478,82.1486992 L85.1667579,81.9531702 L85.1667579,81.9531702 C85.2259673,81.8672091 85.2620905,81.8027347 85.2751277,81.759747 C85.2974313,81.688598 85.297087,81.622735 85.2740949,81.562158 C85.2511029,81.5015809 85.2059745,81.4422105 85.1387098,81.3840465 L82.5102135,79.1111786 C82.4515725,79.0604716 82.3912582,79.025651 82.3292704,79.0067167 C82.2672827,78.9877825 82.1971467,78.9957156 82.1188625,79.0305159 C82.0638764,79.0523028 81.9955313,79.0904221 81.9138271,79.1448739 C81.8321229,79.1993258 81.7694198,79.2483527 81.7257178,79.2919549 L81.5420335,79.1331226 L82.8815504,77.5828803 Z M51.9422179,93.1756884 L53.9439648,92.9522634 L53.9708873,93.193649 L53.9032752,93.2061674 L53.9032752,93.2061674 L53.7414992,93.2502312 L53.7414992,93.2502312 L53.5928182,93.3020123 C53.5731707,93.3098147 53.5560895,93.3172031 53.5415747,93.3241776 C53.4675744,93.3599741 53.4210856,93.4110579 53.4021082,93.4774289 C53.3831309,93.5438 53.3778133,93.6143833 53.3861555,93.6891788 L53.5529993,95.1850894 L55.8198331,94.9320768 L55.6567813,93.4701641 C55.6486919,93.3976351 55.6265706,93.3329829 55.5904175,93.2762073 C55.5542643,93.2194317 55.4980406,93.1780912 55.4217463,93.1521856 C55.357286,93.1295486 55.2801772,93.1117655 55.1904198,93.0988363 C55.1006623,93.0859071 55.023811,93.0807164 54.9598658,93.0832641 L54.9329433,92.8418786 L56.9346901,92.6184536 L56.9616126,92.8598392 L56.8940005,92.8723577 L56.8940005,92.8723577 L56.7322246,92.9164214 L56.7322246,92.9164214 L56.5835435,92.9682026 C56.563896,92.9760049 56.5468149,92.9833933 56.5323001,92.9903678 C56.4582997,93.0261643 56.4118109,93.0772481 56.3928336,93.1436191 C56.3738562,93.2099902 56.3685387,93.2805735 56.3768809,93.355369 L56.7647926,96.8333611 C56.7736404,96.9126897 56.7941256,96.9780983 56.8262482,97.0295869 C56.8583708,97.0810754 56.9152241,97.1229194 56.9968083,97.1551188 C57.0376003,97.1712186 57.1084129,97.1839675 57.2092461,97.1933658 C57.3100792,97.202764 57.3889434,97.2054353 57.4458387,97.2013797 L57.4727613,97.4427652 L55.4710144,97.6661902 L55.4440919,97.4248046 L55.6780161,97.3780425 C55.7800943,97.35747 55.8493807,97.3359681 55.8858753,97.3135368 C55.9508128,97.2787519 55.9960447,97.2318242 56.0215711,97.1727538 C56.0470975,97.1136833 56.0549312,97.0399508 56.0450722,96.951556 L55.8535811,95.2346587 L53.5867472,95.4876713 L53.7740673,97.1671709 C53.782915,97.2464995 53.8034002,97.3119081 53.8355228,97.3633967 C53.8676454,97.4148852 53.9244988,97.4567292 54.0060829,97.4889286 C54.046875,97.5050284 54.1176876,97.5177773 54.2185207,97.5271756 C54.3193539,97.5365738 54.3982181,97.5392451 54.4551134,97.5351895 L54.4820359,97.776575 L52.4802891,98 L52.4533666,97.7586144 L52.6872907,97.7118523 C52.789369,97.6912798 52.8586554,97.6697779 52.8951499,97.6473466 C52.9600874,97.6125617 53.0053194,97.565634 53.0308457,97.5065635 C53.0563721,97.4474931 53.0642058,97.3737606 53.0543469,97.2853658 L52.6660559,93.8039739 C52.6579665,93.7314449 52.6358453,93.6667927 52.5996921,93.6100171 C52.563539,93.5532415 52.5073153,93.511901 52.4310209,93.4859954 C52.3665607,93.4633584 52.2894518,93.4455753 52.1996944,93.4326461 C52.109937,93.4197169 52.0330857,93.4145262 51.9691405,93.4170739 L51.9422179,93.1756884 Z M89.0760398,69.313145 C89.3757701,69.2356564 89.6928701,69.2215447 90.0273398,69.2708098 C90.3618095,69.3200749 90.6960186,69.4385063 91.0299671,69.6261041 C91.3659034,69.8148185 91.6408904,70.0399148 91.854928,70.3013929 C92.0689656,70.562871 92.2188125,70.8432166 92.3044685,71.1424296 C92.3914855,71.4345604 92.4180275,71.7319526 92.3840944,72.0346062 C92.3501613,72.3372598 92.2556158,72.6267885 92.1004578,72.9031924 C91.9352537,73.1974929 91.7274461,73.4384355 91.4770351,73.6260201 C91.2266242,73.8136047 90.9527922,73.9416059 90.6555391,74.0100238 C90.3622616,74.0806749 90.0492252,74.0898766 89.7164298,74.0376287 C89.3836345,73.9853808 89.0602015,73.8710413 88.7461309,73.69461 C88.4022435,73.501429 88.1257657,73.2754952 87.9166975,73.0168087 C87.7076293,72.7581223 87.5577213,72.4790501 87.4669734,72.1795923 C87.3770971,71.8832397 87.3499627,71.5822452 87.3855701,71.2766088 C87.4211775,70.9709725 87.5148859,70.6829351 87.6666951,70.4124968 C87.8240856,70.1321159 88.0252225,69.8972344 88.2701059,69.7078524 C88.5149892,69.5184704 88.7836339,69.3869013 89.0760398,69.313145 Z M88.3918245,70.0744042 C88.2047563,70.1864101 88.0515031,70.3487987 87.9320649,70.56157 C87.7981156,70.8001921 87.7389228,71.0337288 87.7544867,71.2621802 C87.7700505,71.4906315 87.8396902,71.708919 87.9634058,71.9170425 C88.082519,72.1147339 88.2456812,72.3038214 88.4528922,72.4843052 C88.6601033,72.664789 88.8929151,72.8276134 89.1513277,72.9727783 C89.4375692,73.1335764 89.7104929,73.2528906 89.9700988,73.330721 C90.2297046,73.4085514 90.4802129,73.4420375 90.7216236,73.4311793 C90.9568262,73.4220649 91.1693913,73.3636157 91.3593341,73.2558581 C91.5492464,73.1480476 91.7078362,72.9808101 91.835088,72.7541191 C91.9545262,72.5413478 92.0125491,72.3215396 92.0091567,72.0946944 C92.0057643,71.8678493 91.9447562,71.6504874 91.8261324,71.4426086 C91.7077533,71.2296362 91.548498,71.0335888 91.3483665,70.8544665 C91.1482351,70.6753442 90.9070363,70.5065006 90.6247704,70.3479358 C90.3345532,70.1849044 90.052283,70.0636092 89.7779598,69.9840502 C89.5036366,69.9044912 89.2503034,69.8713798 89.0179601,69.8847161 C88.7876047,69.899169 88.5788928,69.9623984 88.3918245,70.0744042 Z M43.1317124,92.8598786 L47.3411871,93.2409446 L47.2225328,94.5526287 L46.9875379,94.5313556 C46.9745001,94.4477385 46.9463883,94.3472998 46.9032023,94.2300396 C46.8600164,94.1127794 46.8100215,94.0012001 46.7532179,93.8953017 C46.6945546,93.7846551 46.6284662,93.6865033 46.5549525,93.6008464 C46.4814388,93.5151895 46.4077326,93.4632914 46.333834,93.4451521 L46.2581478,93.4299042 L46.2581478,93.4299042 L46.0700367,93.4006624 L46.0700367,93.4006624 L45.91639,93.3816011 L45.91639,93.3816011 L45.5768232,93.3491441 L45.2270242,97.216057 C45.2202439,97.2910104 45.2299221,97.3611564 45.2560586,97.4264951 C45.2821952,97.4918338 45.3334559,97.5451349 45.4098409,97.5863984 L45.5022329,97.6230999 L45.5022329,97.6230999 L45.6611174,97.6744079 L45.6611174,97.6744079 C45.7892046,97.7134821 45.8894732,97.7374434 45.9619232,97.7462919 L45.9400415,97.9881869 L43.6582065,97.781622 L43.6800882,97.539727 L43.9737431,97.5388314 L43.9737431,97.5388314 L44.1414267,97.5308257 C44.1873231,97.5263933 44.2232212,97.5201971 44.2491211,97.5122371 C44.326718,97.4894928 44.3856296,97.4518899 44.4258559,97.3994285 C44.4660822,97.3469672 44.4904073,97.2741745 44.4988313,97.1810506 L44.851404,93.283475 L44.4901918,93.2530659 L44.4901918,93.2530659 L44.391169,93.2469641 C44.2864186,93.2409164 44.1858496,93.2392545 44.089462,93.2419785 C44.0137142,93.2442811 43.9318923,93.2820999 43.8439963,93.355435 C43.7561003,93.42877 43.6734721,93.5134591 43.5961119,93.6095021 C43.5187516,93.7055452 43.448773,93.8085537 43.3861761,93.9185277 C43.3235792,94.0285018 43.2786734,94.1200405 43.2514588,94.1931441 L43.0130581,94.1715627 L43.1317124,92.8598786 Z M92.148793,59.3601434 L92.3810431,59.4309438 L92.3691478,59.4831958 L92.3691478,59.4831958 L92.3479047,59.6233443 C92.3446473,59.6506629 92.3415314,59.6799618 92.3385571,59.7112409 C92.3266596,59.8363574 92.3334019,59.9433147 92.3587837,60.0321129 C92.3863463,60.1215759 92.4743151,60.20442 92.6226901,60.2806453 C92.7710651,60.3568705 92.9586517,60.4295524 93.18545,60.4986909 L95.203736,61.113957 C95.4610647,61.1924026 95.6683103,61.3139919 95.8254728,61.4787249 C95.9826353,61.6434579 96.0956956,61.8317007 96.1646537,62.0434532 C96.2299149,62.2516945 96.2590953,62.4590694 96.2521949,62.6655778 C96.2452945,62.8720861 96.2152623,63.0626023 96.1620983,63.2371264 C96.0770359,63.516365 95.9647497,63.7539265 95.8252395,63.949811 C95.6857294,64.1456956 95.5312282,64.298864 95.3617359,64.4093162 C95.1929082,64.517587 95.0170544,64.5843775 94.8341744,64.609688 C94.6512945,64.6349984 94.4726244,64.6210619 94.2981642,64.5678784 L91.5536878,63.7312362 C91.4773615,63.7079685 91.4097533,63.7010672 91.3508633,63.7105324 C91.2919733,63.7199976 91.2290912,63.7562594 91.1622169,63.8193178 C91.1150727,63.8645495 91.0692736,63.9268802 91.0248198,64.00631 C90.9803659,64.0857397 90.9476514,64.1520592 90.9266762,64.2052684 L90.6944261,64.1344679 L91.2835494,62.2005229 L91.5157995,62.2713233 C91.4993728,62.3330716 91.4857608,62.4129628 91.4749635,62.5109971 L91.4618832,62.6738991 C91.4611222,62.6955217 91.4610708,62.7143805 91.4617289,62.7304753 C91.4653032,62.8126256 91.4937997,62.8755517 91.5472185,62.9192538 C91.6006372,62.9629558 91.663329,62.9957759 91.7352938,63.0177141 L94.2998582,63.7995109 C94.4241611,63.8374041 94.5586144,63.8634908 94.7032183,63.877771 C94.8478222,63.8920512 94.9912986,63.876782 95.1336475,63.8319634 C95.2795063,63.7834465 95.4128613,63.69774 95.5337124,63.5748439 C95.6545636,63.4519477 95.7538653,63.2628789 95.8316176,63.0076374 C95.9047181,62.7676668 95.9278596,62.5547848 95.9010423,62.3689915 C95.8742249,62.1831982 95.8129526,62.0244516 95.7172254,61.8927517 C95.6267113,61.7674093 95.5227708,61.6665835 95.4054037,61.5902743 C95.2880367,61.5139651 95.1639306,61.4558667 95.0330855,61.4159792 L93.129289,60.8356147 C92.8872255,60.7618227 92.6840059,60.7189451 92.5196301,60.706982 C92.3552542,60.6950189 92.2387775,60.7155387 92.1702,60.7685413 C92.0924219,60.8282758 92.018165,60.9194814 91.9474292,61.0421581 L91.8582413,61.2058494 C91.8341506,61.2536386 91.8156985,61.2946532 91.8028849,61.3288933 L91.5706348,61.2580928 L92.148793,59.3601434 Z M28.2562961,88.0261752 L29.512449,88.6096367 L30.4293278,93.1164459 L31.4014075,91.0220906 C31.5204572,90.7655967 31.5953628,90.5608887 31.6261241,90.4079666 C31.6568855,90.2550446 31.6518109,90.1414236 31.6109004,90.0671037 C31.5712452,90.0009101 31.4944074,89.9187032 31.3803873,89.8204829 C31.2663671,89.7222626 31.1761994,89.6552368 31.1098841,89.6194056 L31.2121324,89.3991105 L33.0017627,90.230363 L32.8995143,90.4506582 C32.8700859,90.4382464 32.8312233,90.4258529 32.7829265,90.4134776 L32.6097338,90.3764066 L32.6097338,90.3764066 C32.4754036,90.3517291 32.3747111,90.343933 32.3076563,90.3530182 C32.2092156,90.3701552 32.1129891,90.4461527 32.0189768,90.5810108 C31.9249644,90.7158688 31.825634,90.8960311 31.7209854,91.1214975 L30.2247028,94.3452533 L29.9548626,94.2199171 L28.9594531,89.3786707 L27.9052867,91.6498827 C27.787197,91.9043081 27.7124946,92.1072246 27.6811794,92.2586322 C27.6498642,92.4100398 27.6538494,92.5300695 27.6931349,92.6187212 C27.7195712,92.6863181 27.7981073,92.7743428 27.9287432,92.8827953 L28.0653372,92.9927077 C28.0847413,93.0076546 28.1024647,93.0209157 28.1185073,93.0324909 L28.194594,93.0817116 L28.194594,93.0817116 L28.0923456,93.3020067 L26.2872073,92.463551 L26.3894557,92.2432558 L26.4413352,92.2599275 L26.4413352,92.2599275 L26.5964997,92.2952251 L26.5964997,92.2952251 L26.6997847,92.313851 C26.8489216,92.3391198 26.9467525,92.3449581 26.9932774,92.331366 C27.0925306,92.3070631 27.1831997,92.2416851 27.2652849,92.135232 C27.3063275,92.0820055 27.3537908,92.0061454 27.4076748,91.9076518 L27.5240038,91.6804865 C27.5448188,91.6375959 27.5663472,91.5921905 27.588589,91.5442703 L28.5952315,89.375449 C28.6393951,89.2802981 28.6670168,89.1774637 28.6780965,89.0669458 C28.6891763,88.956428 28.6788027,88.862347 28.6469756,88.7847029 C28.6042195,88.6818669 28.5305393,88.5766109 28.4259351,88.4689347 C28.3213308,88.3612585 28.2307017,88.2871037 28.1540477,88.2464703 L28.2562961,88.0261752 Z M94.6137844,50.5933247 C94.9547795,50.4602597 95.3467293,50.4128594 95.7896338,50.4511238 C96.2007401,50.486641 96.5506658,50.5947014 96.8394108,50.7753051 C97.1281559,50.9559087 97.3583684,51.1783817 97.5300484,51.4427241 C97.7015322,51.7093386 97.8215348,52.0024081 97.8900563,52.3219325 C97.9585778,52.6414569 97.9785192,52.9670852 97.9498804,53.2988173 L97.776871,55.3028428 L97.534977,55.2819445 C97.5387693,55.2380165 97.5405485,55.1850126 97.5403144,55.1229327 L97.5384534,55.023006 C97.5350824,54.9162724 97.5269186,54.8451777 97.5139618,54.8097221 C97.4903195,54.739007 97.4508632,54.6858106 97.395593,54.6501329 C97.3403228,54.6144553 97.2718043,54.5930843 97.1900373,54.5860201 L93.701312,54.2846144 C93.6240877,54.2779427 93.5536849,54.2850225 93.4901039,54.305854 C93.4265229,54.3266854 93.3732273,54.3741576 93.3302171,54.4482707 C93.2900667,54.5157635 93.2585111,54.5897216 93.2355503,54.670145 L93.1985076,54.8164982 C93.1938135,54.8384749 93.1898594,54.8592437 93.1866452,54.8788047 L92.9447512,54.8579065 L93.1271761,52.7448184 C93.152284,52.4539848 93.2218579,52.1715709 93.3358978,51.8975769 C93.4499377,51.6235828 93.5920695,51.388641 93.7622933,51.1927516 C93.988959,50.9261987 94.2727894,50.7263897 94.6137844,50.5933247 Z M94.103098,51.6582658 C93.9033162,51.7989526 93.7401928,51.9788596 93.6137278,52.1979867 C93.4872628,52.4171138 93.4119667,52.6664139 93.3878395,52.9458868 L93.372653,53.1483033 L93.372653,53.1483033 L93.3517419,53.5230511 L93.3517419,53.5230511 L97.0687333,53.8441777 C97.2754221,53.8620344 97.4237125,53.8141851 97.5136044,53.7006298 C97.6034964,53.5870744 97.6592309,53.4053292 97.680808,53.1553941 C97.7057198,52.8668326 97.6763888,52.6102102 97.5928148,52.3855268 C97.5092409,52.1608435 97.3823883,51.9736247 97.212257,51.8238703 C97.033629,51.6665147 96.8216206,51.5446173 96.5762318,51.4581782 C96.330843,51.3717391 96.0434789,51.3142931 95.7141396,51.2858401 C95.3893429,51.2577795 95.0920498,51.2755877 94.8222601,51.3392646 C94.5524704,51.4029416 94.3127497,51.5092753 94.103098,51.6582658 Z M22.5613179,84.3669654 L24.3287398,85.6523877 L24.1859674,85.8488398 C24.1469655,85.822354 24.1014078,85.7945465 24.0492945,85.7654173 L23.9662078,85.7207323 C23.8782044,85.675056 23.7979966,85.6399837 23.7255845,85.6155155 C23.6394275,85.58669 23.5662655,85.5884627 23.5060983,85.6208334 C23.4459312,85.6532042 23.393728,85.6998258 23.3494887,85.7606983 L21.2843163,88.6023374 C21.2400769,88.6632099 21.2142334,88.7268879 21.2067857,88.7933713 C21.199338,88.8598548 21.2178288,88.9304 21.2622581,89.005007 C21.2809235,89.0336201 21.3100009,89.0707455 21.3494902,89.1163832 L21.4165331,89.191224 C21.4913849,89.2724491 21.5585657,89.3361117 21.6180753,89.3822118 L21.4753029,89.578664 L19.707881,88.2932417 L19.8506534,88.0967895 L20.0784603,88.2370939 C20.1778639,88.2981104 20.2522895,88.3353214 20.301737,88.3487271 C20.3800148,88.3690025 20.4480649,88.3684464 20.5058873,88.3470585 C20.5637097,88.3256707 20.6194326,88.2780844 20.673056,88.2042995 L22.7402393,85.3598936 C22.7871598,85.2953318 22.8162302,85.2340007 22.8274506,85.1759003 C22.8386709,85.1177998 22.8172049,85.0465006 22.7630525,84.9620025 C22.7368983,84.9204239 22.7039458,84.874841 22.6641952,84.8252538 L22.5994705,84.7478695 C22.5296471,84.667482 22.4693388,84.605998 22.4185455,84.5634175 L22.5613179,84.3669654 Z M92.8330975,42.3551333 L94.4305878,42.1477699 L94.4615607,42.4231244 C94.2836665,42.4936391 94.1144025,42.5694935 93.9537686,42.6506876 C93.7931347,42.7318818 93.6504621,42.8299877 93.5257509,42.9450055 C93.4053157,43.0572469 93.3139214,43.1880217 93.2515681,43.3373299 C93.1892148,43.486638 93.1695095,43.6632753 93.1924525,43.8672416 C93.21667,44.0825394 93.3064152,44.2583312 93.4616882,44.3946169 C93.6169611,44.5309026 93.794278,44.5878248 93.9936387,44.5653835 C94.2020612,44.5419221 94.3693219,44.473752 94.4954208,44.360873 C94.6215197,44.247994 94.7182939,44.0936637 94.7857434,43.8978822 L94.8689345,43.639368 L94.8689345,43.639368 L94.9364623,43.3869201 C94.9762596,43.2206436 95.0205951,43.0590199 95.0694687,42.9020492 C95.1130754,42.7594412 95.1651849,42.6210399 95.225797,42.4868452 C95.2864091,42.3526504 95.3613295,42.2334837 95.4505581,42.1293451 C95.5523597,42.0146112 95.6679177,41.9252949 95.7972319,41.8613962 C95.9265461,41.7974976 96.080689,41.7554751 96.2596605,41.735329 C96.6855675,41.6873862 97.0544312,41.8053662 97.3662517,42.0892691 C97.6780722,42.373172 97.8602394,42.7485516 97.9127532,43.2154079 C97.9369707,43.4307057 97.9277727,43.649765 97.8851591,43.8725857 C97.8425454,44.0954064 97.7824587,44.2903592 97.7048989,44.457444 L97.9694094,44.5756958 L98,44.8476509 L96.3538311,45.0811488 L96.3228582,44.8057943 C96.5203768,44.7261856 96.6969892,44.6391766 96.8526953,44.5447672 C97.0084015,44.4503579 97.1506063,44.3327972 97.2793098,44.1920851 C97.3997162,44.059192 97.4907064,43.9095291 97.5522806,43.7430962 C97.6138548,43.5766633 97.6329154,43.3891975 97.6094627,43.1806985 C97.5918731,43.0243243 97.5561249,42.8900753 97.5022182,42.7779515 C97.4483114,42.6658277 97.3798991,42.5777129 97.2969814,42.513607 C97.2140636,42.4495011 97.1202226,42.4055585 97.0154582,42.3817791 C96.9106938,42.3579997 96.7926132,42.3535055 96.6612164,42.3682963 C96.4686521,42.3899726 96.2952323,42.4645735 96.140957,42.5920992 C95.9866817,42.7196248 95.8786091,42.8958818 95.816739,43.1208702 L95.6783178,43.6493816 C95.6283691,43.8477832 95.5794534,44.0196761 95.5315707,44.1650603 C95.4398262,44.4507863 95.3033162,44.6801603 95.1220405,44.8531826 C94.9407648,45.0262049 94.6904118,45.1306945 94.3709816,45.1666516 C94.1874791,45.1873078 94.0122305,45.1691676 93.8452357,45.112231 C93.6782409,45.0552943 93.5246682,44.964717 93.3845175,44.840499 C93.251928,44.7223148 93.1421483,44.5774656 93.0551784,44.4059514 C92.9682085,44.2344372 92.9137619,44.0512295 92.8918386,43.8563283 C92.8668563,43.6342317 92.8784689,43.4315392 92.9266764,43.2482511 C92.9748839,43.064963 93.0361394,42.8956973 93.1104429,42.7404539 L92.8636881,42.6270885 L92.8330975,42.3551333 Z M88.839232,26.0187902 C89.3416848,25.7285926 89.9841687,25.9008088 90.27426,26.4034457 C90.5643513,26.9060826 90.3921982,27.5488019 89.8897454,27.8389995 C89.3872926,28.1291971 88.7448087,27.9569809 88.4547174,27.454344 C88.1646261,26.9517071 88.3367792,26.3089878 88.839232,26.0187902 Z M9.38587182,71.9080173 C9.88832463,71.6178197 10.5308086,71.7900358 10.8208998,72.2926727 C11.1109911,72.7953097 10.938838,73.438029 10.4363852,73.7282266 C9.93393241,74.0184241 9.29144849,73.846208 9.00135722,73.3435711 C8.71126595,72.8409342 8.883419,72.1982148 9.38587182,71.9080173 Z M0.051969977,54.5282007 L0.291822178,54.4905032 C0.29992857,54.5323224 0.312521162,54.5798493 0.329599956,54.6330837 L0.358582797,54.7172161 C0.390930289,54.8056292 0.418524878,54.8711265 0.441366564,54.9137079 C0.480422645,54.9860608 0.533515118,55.0302363 0.600643985,55.0462342 C0.667772851,55.0622322 0.738497485,55.0643907 0.812817885,55.0527098 L4.2687165,54.5095469 C4.34754116,54.4971581 4.41194453,54.4737615 4.4619266,54.4393573 C4.51190867,54.4049531 4.55115366,54.3462649 4.57966158,54.2632929 C4.59391554,54.2218069 4.60348115,54.1504692 4.60835841,54.0492798 C4.61323568,53.9480904 4.6123774,53.8691568 4.60578359,53.8124788 L4.84563579,53.7747813 L5.15825136,55.7652702 L4.91839916,55.8029677 L4.86124239,55.5712825 L4.86124239,55.5712825 L4.82398361,55.4442513 C4.81169849,55.4101107 4.79954786,55.3841733 4.78753171,55.366439 C4.74989098,55.3030979 4.70100511,55.2599927 4.64087412,55.2371235 C4.58074313,55.2142543 4.50676103,55.209722 4.41892783,55.2235267 L2.71293682,55.491657 L3.0669514,57.745742 L4.7357822,57.4834522 C4.81460687,57.4710634 4.87901024,57.4476668 4.9289923,57.4132626 C4.97897437,57.3788583 5.01821936,57.3201702 5.04672728,57.2371982 C5.06098124,57.1957122 5.07054685,57.1243745 5.07542412,57.0231851 C5.08030138,56.9219957 5.07944311,56.843062 5.0728493,56.7863841 L5.3127015,56.7486866 L5.62531707,58.7391755 L5.38546487,58.776873 L5.32830809,58.5451878 C5.30319994,58.444094 5.27862972,58.3758129 5.25459741,58.3403443 C5.21695668,58.2770032 5.16807082,58.233898 5.10793982,58.2110288 C5.04780883,58.1881595 4.97382673,58.1836273 4.88599353,58.197432 L1.42671672,58.7411258 C1.35464845,58.7524527 1.2910735,58.7774505 1.23599185,58.8161191 C1.18091021,58.8547877 1.14213979,58.9128241 1.11968059,58.9902283 C1.09995648,59.0556597 1.08564513,59.1335148 1.07674654,59.2237933 C1.06784796,59.3140719 1.06610026,59.3911066 1.07150345,59.4548974 L0.831651248,59.4925949 L0.519035681,57.502106 L0.758887881,57.4644085 C0.771047469,57.5271374 0.793301009,57.6027083 0.825648501,57.6911214 L0.884006281,57.8373931 C0.892676377,57.8566793 0.900818372,57.8734193 0.908432268,57.8876131 C0.947488348,57.9599661 1.00058082,58.0041416 1.06770969,58.0201395 C1.13483855,58.0361375 1.20556319,58.038296 1.27988359,58.026615 L2.76629159,57.7929966 L2.41227702,55.5389116 L0.959651016,55.7672205 C0.887582749,55.7785475 0.824007793,55.8035452 0.768926149,55.8422138 C0.713844505,55.8808824 0.675074086,55.9389188 0.65261489,56.016323 C0.632890774,56.0817545 0.618579423,56.1596095 0.60968084,56.249888 C0.600782256,56.3401666 0.599034558,56.4172013 0.604437745,56.4809921 L0.364585545,56.5186896 L0.051969977,54.5282007 Z M79.0379673,9.74757875 L80.6922355,11.0741666 C80.9199197,11.2567507 81.1158845,11.4716258 81.2801299,11.7187919 C81.4443753,11.9659579 81.5605539,12.2147682 81.6286655,12.4652227 C81.7241069,12.8018972 81.7323084,13.1489923 81.6532701,13.5065081 C81.5742317,13.8640238 81.3956858,14.2162766 81.1176321,14.5632664 C80.8595413,14.8853441 80.5751939,15.1162164 80.2645898,15.2558834 C79.9539857,15.3955504 79.6411386,15.463269 79.3260483,15.4590391 C79.0091793,15.4533829 78.698954,15.3902118 78.3953722,15.269526 C78.0917905,15.1488402 77.8101484,14.9843672 77.5504461,14.7761072 L75.9815595,13.5179884 L76.1334196,13.3284786 L76.2625698,13.4213292 L76.2625698,13.4213292 L76.3466305,13.4753424 C76.4371865,13.5318849 76.5007961,13.5646265 76.5374592,13.573567 C76.6093596,13.5932275 76.675497,13.5899984 76.7358715,13.5638798 C76.7962459,13.5377611 76.8520996,13.4926719 76.9034326,13.4286123 L79.0936397,10.6954005 C79.1421208,10.6348997 79.1753832,10.5724249 79.193427,10.5079761 C79.2114707,10.4435273 79.2016606,10.372818 79.1639966,10.2958481 C79.1302431,10.224937 79.0863389,10.1575775 79.0322842,10.0937697 L78.9312801,9.98159509 C78.9156303,9.96547282 78.9005727,9.95063731 78.8861072,9.93708855 L79.0379673,9.74757875 Z M79.9207646,10.8281802 L77.5872529,13.7402252 C77.4574946,13.9021537 77.4147996,14.0520588 77.4591681,14.1899402 C77.5035365,14.3278217 77.6235538,14.4752165 77.8192199,14.6321248 C78.0451254,14.8132825 78.2746534,14.9315799 78.507804,14.987017 C78.7409546,15.0424541 78.9670406,15.0410751 79.1860621,14.9828802 C79.4161236,14.9218469 79.6352839,14.8133432 79.8435429,14.6573692 C80.051802,14.5013951 80.2593104,14.2943991 80.4660682,14.036381 C80.6699742,13.7819219 80.820477,13.5248276 80.9175766,13.2650982 C81.0146761,13.0053688 81.0596147,12.7469234 81.0523923,12.489762 C81.0465814,12.2454241 80.9878012,12.0097599 80.8760515,11.7827694 C80.7643019,11.5557789 80.5990319,11.3545577 80.3802416,11.1791057 L80.1302271,10.9851911 L80.1302271,10.9851911 L79.9207646,10.8281802 L79.9207646,10.8281802 Z M69.6467921,4.27919091 L73.0232966,5.92219187 L72.5117297,6.97427537 L72.2810941,6.86204853 C72.3158799,6.68623287 72.3077378,6.47748215 72.2566677,6.23579637 C72.2055976,5.99411058 72.1225486,5.83513715 72.0075206,5.75887608 L71.943524,5.71843644 L71.943524,5.71843644 L71.7889351,5.62968799 L71.7889351,5.62968799 L71.4905629,5.47689238 L71.4905629,5.47689238 L70.8048065,5.14320457 L69.9611698,6.87821947 L70.4531923,7.11763673 C70.6110495,7.19444977 70.7335971,7.23569456 70.8208349,7.24137111 C70.9080727,7.24704766 70.9963204,7.22848879 71.085578,7.1856945 C71.159599,7.14816658 71.23668,7.08740081 71.316821,7.00339719 C71.396962,6.91939357 71.4635976,6.83579252 71.516728,6.75259405 L71.7473635,6.86482089 L70.9171891,8.57214937 L70.6865535,8.45992253 C70.7262191,8.35749168 70.7547888,8.2426874 70.7722627,8.11550968 C70.7897366,7.98833196 70.7909641,7.89065603 70.7759453,7.82248188 C70.7512835,7.7115742 70.7044464,7.62411324 70.6354342,7.56009901 C70.566422,7.49608478 70.4652878,7.43165657 70.3320317,7.3668144 L69.8400092,7.12739714 L69.2027942,8.43788711 C69.138973,8.56914119 69.0978395,8.67719794 69.0793937,8.76205735 C69.0609479,8.84691676 69.0689027,8.92179793 69.1032583,8.98670086 C69.1376138,9.05160379 69.1981763,9.11214044 69.2849459,9.16831082 L69.3578407,9.212935 L69.3578407,9.212935 L69.5505363,9.31716164 L69.5505363,9.31716164 L69.9378742,9.50694724 C70.0485793,9.56081613 70.143853,9.60210396 70.2236953,9.63081074 C70.3055877,9.66051509 70.3932836,9.68480116 70.4867831,9.70366895 C70.5802825,9.72253674 70.6534329,9.7219924 70.7062342,9.70203591 C70.8484045,9.64948366 71.0198683,9.54841753 71.2206257,9.39883752 L71.4312502,9.23595122 C71.5214203,9.16281293 71.5888773,9.10213193 71.6336209,9.05390821 L71.8550311,9.16164598 L71.1467538,10.4071241 L67.5242379,8.64441455 L67.6304404,8.42599956 L67.7877611,8.48479892 L67.7877611,8.48479892 L67.8891661,8.51955991 C67.9981526,8.55610802 68.0715118,8.5746859 68.1092437,8.57529357 C68.1898048,8.57645319 68.2548649,8.55865769 68.304424,8.52190706 C68.3539831,8.48515643 68.397211,8.42884048 68.4341077,8.35295921 L69.9598337,5.21516632 C69.9927415,5.14748843 70.0106343,5.08201457 70.013512,5.01874473 C70.0163897,4.95547489 69.9899296,4.8899757 69.9341316,4.82224717 C69.8917428,4.76865174 69.8288948,4.70890504 69.7455876,4.64300707 C69.6622803,4.57710909 69.5939477,4.52864204 69.5405896,4.49760591 L69.6467921,4.27919091 Z M0.0241862924,45.2939205 L4.33643704,44.05236 C4.42802282,44.0261485 4.50298044,43.9938814 4.56130993,43.9555588 C4.61963942,43.9172362 4.67834513,43.8617753 4.73742707,43.7891761 C4.77385444,43.7397505 4.8065833,43.6739697 4.83561365,43.5918335 C4.86464401,43.5096974 4.88281401,43.4403343 4.89012365,43.3837443 L5.13196736,43.4052175 L4.95329112,45.4190485 L4.71144741,45.3975753 C4.71581434,45.2193773 4.70615653,45.0702708 4.68247399,44.9502556 C4.65879144,44.8302405 4.62197101,44.768015 4.57201268,44.7635792 L4.53779903,44.7622586 L4.53779903,44.7622586 L4.45398816,44.7685544 L4.45398816,44.7685544 L3.29745073,45.0831384 L3.14719339,46.7766647 L3.42798394,46.9137844 L3.42798394,46.9137844 L3.71428612,47.040375 L3.71428612,47.040375 L3.86647646,47.1049738 C3.96150209,47.1431754 4.03916728,47.1706773 4.099472,47.1874795 L4.20561441,47.2121676 C4.22089364,47.2147962 4.23496728,47.2166818 4.24783533,47.2178243 C4.33866865,47.2258894 4.41541338,47.1605823 4.4780695,47.0219032 C4.54072563,46.8832241 4.58455668,46.724557 4.60956266,46.545902 L4.85140637,46.5673752 L4.68996287,48.3869789 L4.44811916,48.3655057 C4.44881785,48.3060391 4.44231102,48.2310507 4.42859865,48.1405403 C4.41488628,48.0500299 4.39238284,47.9747659 4.36108832,47.9147482 C4.30783793,47.8184377 4.24993503,47.7423202 4.18737961,47.6863956 C4.12482419,47.6304709 4.03662112,47.5734139 3.92277041,47.5152243 L2.79168905,46.9466267 L2.79168905,46.9466267 L0,45.5665203 L0,45.5665203 L0.0241862924,45.2939205 Z M1.04497286,45.7451615 L2.85461869,46.6304851 L2.9834107,45.1788912 L1.04497286,45.7451615 Z M59.4010793,0.992403351 L63.5037456,2.00909811 L63.1871727,3.28750044 L62.9581403,3.23074321 C62.9579589,3.14611518 62.9454343,3.04256905 62.9205666,2.92010479 C62.895699,2.79764054 62.8632384,2.67975588 62.8231849,2.56645081 C62.7820149,2.44816999 62.7316075,2.3411098 62.6719627,2.24527026 C62.6123178,2.14943072 62.5473534,2.08692848 62.4770695,2.05776355 L62.319922,2.00315678 L62.319922,2.00315678 L62.0741317,1.93147804 L62.0741317,1.93147804 L61.7434417,1.84776656 L60.8101683,5.61656305 C60.7920784,5.68961461 60.7909862,5.76041719 60.8068915,5.8289708 C60.8227968,5.89752441 60.8653634,5.95800047 60.9345913,6.010399 L60.9695247,6.03249233 L60.9695247,6.03249233 L61.0870171,6.09508929 L61.0870171,6.09508929 L61.1695761,6.13559291 C61.2902381,6.19368891 61.385701,6.23261781 61.4559648,6.25237963 L61.3975838,6.48813694 L59.1736465,5.937016 L59.2320275,5.70125868 L59.5224066,5.74502409 L59.5224066,5.74502409 L59.6893583,5.76260794 C59.7353948,5.76520566 59.7718173,5.76453982 59.7986257,5.76061041 C59.8787768,5.74992903 59.9427173,5.72172065 59.9904472,5.67598528 C60.0381771,5.6302499 60.0732797,5.5620017 60.095755,5.47124067 L61.0364288,1.67255945 L60.6840338,1.58758087 L60.6840338,1.58758087 L60.5870887,1.56649348 C60.4844742,1.54458857 60.3853262,1.52765437 60.2896447,1.51569086 C60.2144272,1.50644909 60.1278098,1.53138736 60.0297924,1.59050568 C59.9317751,1.64962399 59.8372394,1.72076535 59.7461852,1.80392974 C59.655131,1.88709414 59.5703143,1.97826549 59.4917353,2.0774438 C59.4131562,2.1766221 59.3548638,2.26026933 59.316858,2.32838548 L59.0845064,2.27080568 L59.4010793,0.992403351 Z M3.11920184,31.9403566 L3.35029235,32.0148574 C3.34158733,32.0455964 3.33405726,32.0856996 3.32770214,32.1351669 L3.31216164,32.3116614 L3.31216164,32.3116614 C3.30415122,32.4480527 3.30876388,32.5489779 3.32599964,32.614437 C3.35507207,32.7100692 3.44226794,32.7962855 3.58758725,32.873086 C3.73290656,32.9498865 3.9238238,33.0264116 4.16033897,33.1026613 L7.54207197,34.1928925 L7.4508156,34.4761635 L2.76992305,36.0580669 L5.15243368,36.8261604 C5.41932695,36.9122037 5.62979853,36.9614875 5.78384843,36.9740118 C5.93789833,36.9865362 6.0564899,36.9678613 6.13962313,36.9179873 C6.20344364,36.883452 6.28114177,36.7946863 6.37271753,36.6516901 L6.46501106,36.5025995 L6.46501106,36.5025995 L6.52210984,36.3985189 C6.52869341,36.384923 6.53381053,36.3732024 6.5374612,36.3633573 L6.76855172,36.4378582 L6.15807808,38.3328435 L5.92698756,38.2583426 C5.93425801,38.2283392 5.94055853,38.1869411 5.94588912,38.1341484 L5.95897111,37.9415862 L5.95897111,37.9415862 L5.96087581,37.7857829 C5.95871164,37.720678 5.95187268,37.6747683 5.94035894,37.6480539 C5.90407763,37.5524937 5.82809873,37.4704926 5.71242222,37.4020506 C5.63530455,37.3564226 5.51686809,37.3043959 5.35711282,37.2459706 L5.08649083,37.1535337 L5.08649083,37.1535337 L2.81138846,36.4200673 C2.71157472,36.3878885 2.60616672,36.373075 2.49516445,36.3756268 C2.38416219,36.3781786 2.29209745,36.4000141 2.21897022,36.4411334 C2.12219054,36.4961924 2.02680186,36.58225 1.93280418,36.6993064 C1.8388065,36.8163628 1.77635143,36.9154339 1.74543897,36.9965199 L1.51434845,36.922019 L1.93916259,35.6033437 L6.29789298,34.1404162 L4.10090572,33.4321332 C3.83184258,33.3453904 3.61956878,33.2961246 3.46408431,33.2843358 C3.30859983,33.272547 3.19649985,33.2915176 3.12778437,33.3412475 C3.06697705,33.3887348 2.99484239,33.4751009 2.91138039,33.6003461 C2.8279184,33.7255912 2.77247938,33.8233301 2.74506333,33.8935628 L2.51397282,33.8190619 L3.11920184,31.9403566 Z M49.2878719,0 L53.0924316,0.106870663 L53.0583569,1.32080919 L52.8019849,1.31360766 C52.759184,1.13216733 52.664891,0.936732362 52.5191058,0.727302751 C52.3733206,0.517873139 52.2312107,0.400947284 52.092776,0.376525185 L52.0179981,0.366059184 L52.0179981,0.366059184 L51.8421074,0.348950418 L51.8421074,0.348950418 L51.5124341,0.332845363 L51.5124341,0.332845363 L50.6988805,0.309992517 L50.6441689,2.25913325 L51.2013506,2.27478457 C51.3699864,2.27952157 51.5015169,2.2655347 51.5959421,2.23282396 C51.6903672,2.20011322 51.7716472,2.14821089 51.8397818,2.07711699 C51.8867669,2.02824393 51.9305478,1.95133257 51.9711245,1.84638289 C52.0117013,1.74143322 52.0393825,1.62870645 52.0541683,1.50820259 L52.3139586,1.51550014 L52.2604948,3.42018678 L52.0007046,3.41288923 C51.9966836,3.31239054 51.9765247,3.19774956 51.9402281,3.0689663 C51.9039315,2.94018305 51.8637944,2.84665507 51.8198169,2.78838238 C51.7538187,2.70211319 51.6694074,2.64213434 51.5665831,2.60844581 C51.4637587,2.57475729 51.339423,2.55586459 51.1935758,2.55176773 L50.6363941,2.53611641 L50.5894574,4.20827398 C50.5873457,4.28350398 50.6002706,4.35117112 50.6282321,4.41127541 C50.6561935,4.4713797 50.7072635,4.52072565 50.7814421,4.55931324 L50.8142029,4.57285301 L50.8142029,4.57285301 L50.9244815,4.60503981 L50.9244815,4.60503981 L51.0019994,4.62368683 C51.1153026,4.64968448 51.2015474,4.66465533 51.2607338,4.66859938 L51.2539189,4.91138708 L49.1516689,4.85233456 L49.1584838,4.60954686 L49.4325712,4.59500144 L49.4325712,4.59500144 C49.5468022,4.58794349 49.6212332,4.57691567 49.655864,4.561918 C49.7250617,4.53420235 49.7758588,4.49171048 49.8082552,4.43444239 C49.8406516,4.37717431 49.8580016,4.30750573 49.8603052,4.22543664 L49.958594,0.723822413 C49.9607057,0.64859242 49.9500437,0.581559215 49.926608,0.522722798 C49.9031722,0.463886381 49.8520862,0.415110361 49.7733499,0.376394738 C49.7126525,0.345030313 49.6307796,0.316493309 49.5277313,0.290783723 C49.424683,0.265074138 49.3424582,0.249075465 49.2810569,0.242787705 L49.2878719,0 Z M8.28037358,22.9340166 C8.60085992,22.7937359 8.94350537,22.7385056 9.30830992,22.7683257 C9.67311447,22.7981458 10.0462101,22.9273034 10.4275967,23.1557985 C10.7816018,23.3678888 11.0488414,23.6183792 11.2293155,23.9072697 C11.4097896,24.1961602 11.5193113,24.4970374 11.5578806,24.8099013 C11.5952786,25.1247217 11.5748132,25.4407625 11.4964844,25.7580236 C11.4181556,26.0752846 11.2934833,26.376743 11.1224676,26.6623987 L10.0893453,28.3880719 L9.88104946,28.2632784 C9.90369538,28.2254519 9.92850605,28.1785844 9.95548148,28.1226759 L10.0266167,27.9645776 L10.0266167,27.9645776 L10.0623089,27.8633466 C10.0657682,27.8502169 10.0679827,27.8389582 10.0689526,27.8295705 C10.078667,27.7556412 10.0664939,27.6905297 10.0324334,27.6342362 C9.99837286,27.5779427 9.94613766,27.5287041 9.87572782,27.4865204 L6.87157447,25.6866822 C6.80507629,25.646842 6.73868829,25.6223532 6.6724105,25.6132156 C6.6061327,25.6040781 6.53743438,25.6233965 6.46631554,25.6711707 C6.40066654,25.7142471 6.33991252,25.7669019 6.28405346,25.8291352 L6.23177649,25.889084 L6.23177649,25.889084 L6.1487151,25.995275 L6.1487151,25.995275 L5.94041931,25.8704816 L7.02976599,24.0508941 C7.17969757,23.8004563 7.3659141,23.577074 7.58841557,23.3807472 C7.81091704,23.1844205 8.04156971,23.0355103 8.28037358,22.9340166 Z M7.7066125,23.7725525 C7.49696882,23.9141122 7.32010953,24.1052196 7.17603465,24.3458747 L7.01791177,24.6199819 L7.01791177,24.6199819 L6.8908348,24.8488896 L6.8908348,24.8488896 L10.091549,26.7664907 C10.2695294,26.8731218 10.4237872,26.8950948 10.5543222,26.8324098 C10.6848573,26.7697249 10.8145485,26.6307724 10.943396,26.4155523 C11.0921562,26.1670711 11.1781689,25.9235297 11.2014339,25.6849282 C11.224699,25.4463267 11.1926529,25.2224371 11.1052956,25.0132593 C11.0136291,24.7935248 10.8764279,24.5910366 10.693692,24.4057945 C10.5109561,24.2205523 10.2777906,24.042978 9.99419535,23.8730714 C9.7145118,23.7055083 9.43946544,23.5912315 9.16905625,23.5302408 C8.89864706,23.4692501 8.63658789,23.4597826 8.38287874,23.5018382 C8.14167826,23.5407548 7.91625618,23.6309929 7.7066125,23.7725525 Z M40.4192183,0.830465558 L40.6883524,0.781375803 L43.0304059,4.61039312 C43.079996,4.69175753 43.1310047,4.75547673 43.1834319,4.80155073 C43.2358592,4.84762473 43.3049028,4.88950881 43.3905629,4.92720299 C43.447872,4.9492046 43.5199605,4.96329453 43.6068283,4.96947278 C43.6936962,4.97565103 43.7653694,4.97474844 43.8218479,4.96676501 L43.8653991,5.20570904 L41.877171,5.56835961 L41.8336198,5.32941558 C42.0065123,5.28628921 42.1476433,5.23736513 42.2570127,5.18264336 C42.3663821,5.12792158 42.4165685,5.07588103 42.407572,5.0265217 L42.399756,4.99317442 L42.399756,4.99317442 L42.3714244,4.91401774 L42.3714244,4.91401774 L41.7610227,3.88219463 L40.0890271,4.18716474 L40.0314739,4.49439128 L40.0314739,4.49439128 L39.9637061,4.96807276 L39.9637061,4.96807276 L39.9481614,5.14554542 C39.9468372,5.17077194 39.9461463,5.19382233 39.9460887,5.21469658 L39.9504929,5.32362114 C39.9520186,5.33905507 39.95394,5.35312892 39.9562573,5.36584268 C39.9726146,5.45558692 40.0559392,5.51225264 40.206231,5.53583985 C40.3565229,5.55942706 40.5210767,5.55954917 40.6998924,5.53620617 L40.7434436,5.7751502 L38.9469735,6.10282431 L38.9034223,5.86388028 L38.965265,5.84506611 L38.965265,5.84506611 L39.1150397,5.78529265 L39.1150397,5.78529265 C39.1986234,5.74802423 39.2651786,5.70632765 39.3147053,5.66020292 C39.3933755,5.58326231 39.4513495,5.50719892 39.4886273,5.43201276 C39.5259051,5.3568266 39.557461,5.25660441 39.583295,5.13134619 L39.9186564,3.43779677 L39.9186564,3.43779677 L40.4192183,0.830465558 L40.4192183,0.830465558 Z M40.5246536,1.88571746 L40.1521809,3.86616658 L41.58532,3.60476363 L40.5246536,1.88571746 Z M15.8417409,16.9356034 L16.2372421,17.2988103 L14.8589489,18.8007537 L14.4634477,18.4375468 L15.8417409,16.9356034 Z M27.9946718,4.921139 L30.0520685,4.03531443 C30.2405323,3.9541702 30.4258157,3.89736176 30.6079186,3.86488914 C30.7900215,3.83241651 30.9665583,3.83027251 31.1375292,3.85845715 C31.3034108,3.88635017 31.4541573,3.95117465 31.589769,4.05293058 C31.7253806,4.15468651 31.8341943,4.30087832 31.9162101,4.49150601 C31.9901144,4.66328041 32.0292812,4.82642414 32.0337103,4.98093722 C32.0381394,5.1354503 32.0097791,5.28297673 31.9486296,5.4235165 C31.8931524,5.55416544 31.8136465,5.68088364 31.7101119,5.80367111 C31.6065773,5.92645858 31.4851504,6.04515613 31.3458312,6.15976374 L33.0581356,7.15431417 C33.2043498,7.24033224 33.3274693,7.29718887 33.4274941,7.32488405 C33.5275188,7.35257924 33.6222884,7.36950207 33.7118028,7.37565255 C33.7779645,7.37944341 33.8550336,7.37108943 33.9430101,7.35059059 L34.0972098,7.30902757 C34.1192842,7.30200618 34.1395457,7.29493767 34.1579945,7.28782205 L34.25398,7.51091929 L33.0540937,8.02753759 L32.5437313,7.68654857 L32.5437313,7.68654857 L32.0813557,7.38925418 C32.008292,7.34334633 31.9372278,7.2992591 31.8681631,7.25699247 C31.5228392,7.04565932 31.1551368,6.83278856 30.7650557,6.61838017 L30.3096015,6.81447874 L30.9179603,8.22847531 C30.9495049,8.30179365 30.9887362,8.36125024 31.0356544,8.40684506 C31.0825726,8.45243989 31.1500334,8.47367213 31.2380367,8.47054177 C31.2673712,8.46949832 31.3090696,8.46257974 31.363132,8.44978603 L31.5475009,8.39854392 L31.5475009,8.39854392 L31.7016827,8.34540192 L31.7016827,8.34540192 L31.7976682,8.56849915 L29.91303,9.37994151 L29.8170445,9.15684427 L30.0258851,9.0408567 L30.0258851,9.0408567 C30.1166577,8.98935973 30.1772852,8.94711758 30.2077678,8.91413026 C30.2588726,8.85984965 30.2872938,8.80043841 30.2930316,8.73589653 C30.2987693,8.67135465 30.2840634,8.59823492 30.2489138,8.51653735 L28.8618556,5.29262517 C28.8303111,5.21930683 28.7919014,5.15887574 28.7466266,5.11133191 C28.7013519,5.06378807 28.6336658,5.04203213 28.5435684,5.04606409 C28.4831059,5.04975087 28.407614,5.06177077 28.3170928,5.08212381 L28.1561073,5.12329802 C28.1326192,5.13023841 28.1108025,5.13721782 28.0906573,5.14423623 L27.9946718,4.921139 Z M21.9957999,8.30922 L23.039097,9.69050371 L22.8123991,9.85560388 C22.6836178,9.740643 22.5317057,9.62489692 22.3566629,9.50836564 C22.1816201,9.39183436 22.014219,9.30711526 21.8544598,9.25420835 C21.6747508,9.19326284 21.4982456,9.17159311 21.3249441,9.18919916 C21.1516425,9.20680521 20.9866612,9.27265504 20.83,9.38674866 C20.651222,9.5169496 20.5137331,9.67773075 20.4175334,9.86909209 C20.3213337,10.0604534 20.2733751,10.274511 20.2736577,10.5112647 C20.2754442,10.7384604 20.3297884,10.9894401 20.4366903,11.2642037 C20.5435922,11.5389673 20.7003606,11.8183177 20.9069957,12.1022548 C21.0894786,12.3530045 21.2886595,12.5598577 21.5045382,12.7228145 C21.7204169,12.8857713 21.9450314,13.0035779 22.1783816,13.0762344 C22.4103901,13.1470472 22.6392316,13.1679789 22.8649061,13.1390295 C23.0905807,13.11008 23.3029439,13.0231223 23.5019957,12.8781563 C23.6512846,12.7694318 23.7714857,12.6459243 23.862599,12.5076339 C23.9537124,12.3693434 24.0171684,12.2279226 24.052967,12.0833713 C24.086082,11.9351325 24.1000879,11.7838849 24.0949846,11.6296285 C24.0898813,11.475372 24.0651676,11.3212928 24.0208435,11.1673908 L24.3006456,11.1159469 C24.4252582,11.6204136 24.4174222,12.0513782 24.2771376,12.4088408 C24.136853,12.7663034 23.8860896,13.0765779 23.5248474,13.3396644 C23.2907772,13.5101337 23.0328385,13.6274623 22.7510313,13.6916503 C22.4692241,13.7558383 22.1823182,13.7616786 21.8903138,13.7091713 C21.6001525,13.6553218 21.3153244,13.5390535 21.0358295,13.3603664 C20.7563347,13.1816793 20.5025354,12.9356172 20.2744318,12.6221801 C20.0463281,12.308743 19.8872775,11.9894457 19.7972799,11.6642882 C19.7072823,11.3391307 19.6799755,11.0226198 19.7153595,10.7147555 C19.7502423,10.4100772 19.8457259,10.1247356 20.0018104,9.85873082 C20.1578949,9.592726 20.3658738,9.365093 20.625747,9.17583183 C20.8192696,9.03489266 21.0118047,8.93134499 21.2033523,8.86518882 C21.3948999,8.79903264 21.5931639,8.75760493 21.7981444,8.74090568 L21.7746312,8.47029334 L21.9957999,8.30922 Z M29.370025,4.6306396 L30.1933374,6.54424829 L30.6048167,6.36708337 C30.8937946,6.24266221 31.0947281,6.04628258 31.2076174,5.77794448 C31.3205067,5.50960638 31.3084547,5.21623179 31.1714613,4.89782071 C31.0551971,4.62759026 30.8855625,4.44675526 30.6625573,4.35531572 C30.4395521,4.26387618 30.1867016,4.27901458 29.9040059,4.40073093 L29.370025,4.6306396 Z" id="path-2"></path>
        <linearGradient x1="98.6578013%" y1="1.74147944e-13%" x2="5.90170132%" y2="100%" id="linearGradient-3">
            <stop stop-color="#FFFFFF" stop-opacity="0.5" offset="0%"></stop>
            <stop stop-color="#FFFFFF" stop-opacity="0.5" offset="36.9744423%"></stop>
            <stop stop-color="#FFFFFF" stop-opacity="0.5" offset="41.5297233%"></stop>
            <stop stop-color="#FFC68C" stop-opacity="0.5" offset="60.9096845%"></stop>
            <stop stop-color="#FFFFFF" stop-opacity="0.5" offset="100%"></stop>
        </linearGradient>
        <path d="M67.5423102,28.4136532 L76,33.328385 L76,64.6952435 L53.4931477,77.75 L53.4931477,67.9441648 L67.5423102,59.7805116 L67.5423102,28.4136532 Z M53.4931477,20.25 L61.9508375,25.1588247 L61.9508375,57.1872817 L53.4931477,62.0961064 L53.4931477,52.8337271 L44.5068523,52.8337271 L44.5068523,77.7440929 L36.0491625,72.8234539 L36.0491625,40.8127183 L44.5068523,35.9038936 L44.5068523,45.2312513 L53.4931477,45.2312513 L53.4931477,20.25 Z M44.5068523,20.25 L44.5068523,30.0558352 L30.4576898,38.2194884 L30.4576898,69.5863468 L22,64.671615 L22,33.3047565 L44.5068523,20.25 Z" id="path-4"></path>
    </defs>
    <g id="Page-1" stroke="none" stroke-width="1" fill="none" fill-rule="evenodd">
        <g id="logo" fill-rule="nonzero">
            <g id="Group-2">
                <g id="Shape">
                    <use fill="#000000" xlink:href="#path-2"></use>
                    <use fill="url(#linearGradient-1)" xlink:href="#path-2"></use>
                </g>
                <g id="Combined-Shape">
                    <use fill="#FFC574" xlink:href="#path-4"></use>
                    <use fill="url(#linearGradient-3)" xlink:href="#path-4"></use>
                </g>
            </g>
        </g>
    </g>
</svg>